<svg data-v-1084b650="" xmlns="http://www.w3.org/2000/svg" viewBox="0 0 300 300"><!----> <!----> <rect data-v-1084b650="" fill="#ffffff" x="0" y="0" width="300px" height="300px" class="logo-background-square"></rect> <!----> <g data-v-1084b650="" id="5693b3dc-32a8-eb26-25cf-84d2ac02df3c" fill="#000000" transform="matrix(6.6999999999999975,0,0,6.6999999999999975,164.73168949782848,83.13400416374206)"><path d="M4.83 13.69L1.68 13.69L1.68 11.73L0.28 11.73L0.28 14.01L1.90 14.95L4.61 14.95L6.23 14.01L6.23 5.08L4.83 5.08ZM8.75 9.70L10.37 10.64L13.86 10.64L13.86 13.69L10.01 13.69L10.01 12.57L8.61 12.57L8.61 14.01L10.23 14.95L13.64 14.95L15.26 14.01L15.26 10.18L13.64 9.24L10.15 9.24L10.15 6.27L13.86 6.27L13.86 7.39L15.26 7.39L15.26 5.95L13.64 5.01L10.37 5.01L8.75 5.95Z"></path></g> <linearGradient data-v-1084b650="" gradientTransform="rotate(25)" id="e0916fb5-cdba-310c-cac9-3b6444055790" x1="0%" y1="0%" x2="100%" y2="0%"><stop data-v-1084b650="" offset="0%" style="stop-color: rgb(1, 100, 139); stop-opacity: 1;"></stop> <stop data-v-1084b650="" offset="100%" style="stop-color: rgb(91, 208, 164); stop-opacity: 1;"></stop></linearGradient> <g data-v-1084b650="" id="c94a0ea7-192b-77ab-3f04-90173995d461" fill="url(#e0916fb5-cdba-310c-cac9-3b6444055790)" stroke="none" transform="matrix(0.5464451051369689,0,0,0.5464451051369689,11.823925605187085,66.7525035142899)"><svg xmlns="http://www.w3.org/2000/svg" xmlns:xlink="http://www.w3.org/1999/xlink" version="1.1" x="0px" y="0px" viewBox="0 0 64 64" enable-background="new 0 0 64 64" xml:space="preserve"><path d="M53,15c0-1.104-0.896-2-2-2H13c-1.104,0-2,0.896-2,2v35c0,1.104,0.896,2,2,2h38c1.104,0,2-0.896,2-2V15z M49,15.5  c0.553,0,1,0.447,1,1s-0.447,1-1,1s-1-0.447-1-1S48.447,15.5,49,15.5z M46,15.5c0.553,0,1,0.447,1,1s-0.447,1-1,1s-1-0.447-1-1  S45.447,15.5,46,15.5z M43,15.5c0.553,0,1,0.447,1,1s-0.447,1-1,1s-1-0.447-1-1S42.447,15.5,43,15.5z M51,50H13V22h38V50z"></path><rect x="45" y="31" width="1" height="1"></rect><rect x="42" y="31" width="1" height="1"></rect><rect x="35" y="27" width="1" height="1"></rect><rect x="28" y="27" width="1" height="1"></rect><rect x="18" y="31" width="1" height="1"></rect><rect x="21" y="31" width="1" height="1"></rect><path d="M43,32v1h-2v1h-2v-1h-2v-2h-2v-3h-1v3h-4v-3h-1v3h-2v2h-2v1h-2v-1h-2v-1h-2v2h2v1h2v1h2v2h3v2v1h-1v1h2v-1h1v-1h4v1h1v1h2  v-1h-1v-1v-2h3v-2h2v-1h2v-1h2v-2H43z M30,34h-1v-1h1V34z M35,34h-1v-1h1V34z"></path></svg></g></svg>